<svg width="176" height="36" xmlns="http://www.w3.org/2000/svg"><g fill-rule="nonzero"><path d="M17.98 36C8.05 36 0 27.94 0 18 0 8.059 8.05 0 17.98 0s17.98 8.059 17.98 18c0 9.94-8.05 18-17.98 18zM27.09 9.252a.458.458 0 00-.072-.092l-.082-.083a.507.507 0 00-.09-.07c-.926-.556-2.65-.036-3.842 1.158l-1.744 1.747-7.92-.529-.039-.001c-.657.01-1.155.371-1.27.923-.112.542.172 1.362 1.342 1.891l3.78 1.893c-.617.727-1.78 2.13-2.36 3.076l-2.203.245a.48.48 0 00-.423.53l.135 1.222a.48.48 0 00.41.423l1.588.226.228 1.59a.48.48 0 00.42.41l1.221.136a.484.484 0 00.53-.424l.244-2.205c.944-.58 2.347-1.744 3.073-2.363l1.89 3.784c.46 1.018 1.138 1.366 1.664 1.366.079 0 .155-.007.225-.022.552-.114.913-.614.921-1.271v-.04l-.528-7.928 1.744-1.747c1.193-1.194 1.713-2.918 1.157-3.845zm-14.073 8.031a.48.48 0 00-.677-.679L8.79 20.156a.479.479 0 00.338.82.479.479 0 00.34-.14l3.547-3.553zm5.651 6.042L15.6 26.396a.48.48 0 10.678.68l3.068-3.072a.48.48 0 10-.678-.68zm-5.945-.576l-3.165 3.168a.48.48 0 10.679.678l3.164-3.167a.481.481 0 00-.678-.68zM63.622 10.714h6.814l.891-5.214H52.314l-.892 5.214H58.2L54.703 30.5h5.423l3.496-19.786zm29.646 2.5c0-2.167-.583-3.993-1.748-5.482C90.355 6.244 88.535 5.5 86.062 5.5H74.288l-4.388 25h5.46l1.568-8.857h4.781l1.963 8.857h5.921l-2.14-9.214c2.117-.62 3.615-1.702 4.495-3.25.88-1.548 1.32-3.155 1.32-4.822zM84.313 16.5h-6.492l.999-5.857h6.457c.785 0 1.38.25 1.784.75.404.5.606 1.178.606 2.036 0 .809-.237 1.523-.713 2.143-.475.619-1.355.928-2.64.928zm6.922 14h5.815l2.64-4.857h9.204l.927 4.857h5.566l-4.959-25h-5.423l-13.77 25zm10.988-9.822l3.425-6.285c.309-.476.618-1.095.927-1.857 0 .047.107.702.321 1.964l1.142 6.178h-5.815zm19.443 9.822h5.779l12.523-25h-5.816l-7.063 14.072c-.5.976-1.023 2.261-1.57 3.857 0-1.238-.107-2.584-.321-4.036L123.128 5.5h-5.636l4.174 25zm15.805 0h17.73l.927-5.178h-12.271l.891-5.143h6.458l.891-5.143h-6.421l.785-4.393h11.524l.891-5.143h-17.017l-4.388 25zm20.834 0h16.767l.928-5.142h-11.345L168.152 5.5h-5.459l-4.388 25z"/></g></svg>